<?xml version="1.0" standalone="no"?>
<!DOCTYPE svg PUBLIC "-//W3C//DTD SVG 20010904//EN"
 "http://www.w3.org/TR/2001/REC-SVG-20010904/DTD/svg10.dtd">
<svg version="1.0" xmlns="http://www.w3.org/2000/svg"
 width="700.000000pt" height="700.000000pt" viewBox="0 0 700.000000 700.000000"
 preserveAspectRatio="xMidYMid meet">
<metadata>
Created by potrace 1.14, written by Peter Selinger 2001-2017
</metadata>
<g transform="translate(0.000000,700.000000) scale(0.100000,-0.100000)"
fill="#000000" stroke="none">
<path d="M0 3500 l0 -3500 3500 0 3500 0 0 3500 0 3500 -3500 0 -3500 0 0
-3500z m3599 1886 c18 -16 19 -35 19 -342 0 -179 2 -327 5 -330 2 -2 113 -5
247 -6 221 -1 245 -3 262 -20 16 -16 18 -38 18 -242 0 -203 -2 -225 -19 -247
l-19 -24 -241 1 c-136 0 -244 -3 -248 -8 -3 -5 -5 -251 -5 -547 0 -548 2 -583
39 -656 43 -84 100 -107 273 -113 99 -3 139 -8 150 -18 12 -12 15 -56 16 -261
1 -228 0 -247 -17 -264 -11 -11 -27 -19 -36 -20 -147 -9 -369 -11 -448 -4
-309 27 -497 131 -566 315 -41 110 -42 125 -46 855 -2 390 -6 712 -9 715 -3 3
-73 5 -155 6 -129 1 -152 4 -169 19 -19 17 -20 31 -20 247 0 287 -11 268 162
267 68 0 135 0 149 0 21 1 32 10 49 44 12 23 35 65 50 92 85 156 250 462 276
513 9 19 26 37 36 41 10 3 65 6 123 6 84 -1 108 -5 124 -19z m-1943 -650 c154
-15 357 -80 479 -153 227 -136 360 -322 391 -548 3 -22 6 -415 6 -873 0 -760
-1 -834 -16 -851 -15 -17 -39 -18 -312 -19 -358 -1 -334 -11 -334 133 0 62 -4
95 -11 95 -6 0 -31 -22 -55 -49 -123 -136 -332 -215 -574 -215 -294 0 -497 67
-659 218 -80 75 -130 171 -168 320 -10 40 -11 262 -1 316 59 324 309 533 713
595 40 7 337 16 565 18 l185 2 -1 110 c0 92 -4 118 -23 160 -52 117 -156 174
-325 179 -194 7 -327 -55 -381 -178 -13 -29 -31 -56 -40 -59 -14 -6 -58 -2
-200 18 -16 2 -52 7 -80 10 -27 4 -61 8 -75 11 -14 2 -47 6 -75 9 -27 4 -61 8
-75 10 -14 2 -45 7 -69 10 -25 3 -52 12 -62 20 -15 14 -15 22 -1 88 68 332
424 588 867 624 39 3 71 6 72 7 5 5 190 -2 259 -8z m4109 -1 c356 -44 631
-290 760 -678 30 -92 42 -145 73 -325 10 -58 8 -418 -3 -497 -50 -361 -181
-618 -403 -793 -126 -99 -272 -157 -445 -176 -281 -33 -478 24 -631 182 -27
28 -53 49 -58 46 -4 -3 -8 -237 -8 -521 0 -467 -2 -518 -17 -535 -15 -17 -38
-18 -314 -18 -341 0 -329 -3 -330 83 0 29 0 754 0 1612 l-1 1559 22 18 c19 16
49 17 312 17 351 -1 328 8 328 -134 0 -52 3 -95 8 -95 4 0 41 33 82 73 41 40
100 87 130 104 133 76 302 103 495 78z"/>
<path d="M1395 3319 c-210 -27 -333 -134 -337 -292 -2 -136 75 -230 221 -267
57 -15 202 -10 266 8 131 37 244 121 292 220 26 52 28 68 31 195 3 109 1 137
-10 139 -42 4 -421 2 -463 -3z"/>
<path d="M5407 4169 c-187 -29 -317 -224 -344 -519 -13 -132 -4 -347 16 -417
5 -18 8 -33 6 -33 -8 0 36 -116 62 -167 82 -159 235 -234 409 -202 198 37 334
238 360 534 39 437 -95 756 -337 800 -55 11 -121 12 -172 4z"/>
</g>
</svg>
